<svg xmlns="http://www.w3.org/2000/svg" xml:space="preserve" style="enable-background:new 0 0 1200 675" viewBox="0 0 1200 675">

<!-- <path id="Background" d="M0 0h1200v675H0z" style="fill:#f0ede2"/> -->

  <g id="Graphic_Element"> 

    <!-- <circle cx="150.7" cy="145.535" r="68.256" style="fill:#d1496b"/>
    <path d="M536.01 81.545h127.98v127.98H536.01z" style="fill:#9fcfc3"/>
    <path d="M753.999 102.875H895.3v85.32H753.999z" style="fill:#61acc1"/>
    <path d="m375.35 86.424-68.256 118.223h136.512z" style="fill:#ffc847"/>

    <ellipse cx="1049.3" cy="145.535" rx="55.458" ry="74.404" style="fill:#b84ba9"/> -->
    <path d="M218.956 321.471h-51.431v-51.432h-33.65v51.432H82.444v33.649h51.431v51.432h33.65V355.12h51.431z" style="fill:#9fcfc3"/>
    <!-- <path d="m375.35 273.38-68.256 49.591 26.071 80.24h84.37l26.071-80.24z" style="fill:#61acc1"/>
    <path d="M659.112 372.424v-68.256L600 270.039l-59.112 34.129v68.256L600 406.552z" style="fill:#b84ba9"/>
    <path d="M871.674 279.535h-94.048l-21.232 26.222 68.256 91.299 68.256-91.299z" style="fill:#d1496b"/>
    <path d="M1081.767 270.039c6.588 11.011 10.376 23.891 10.376 37.655 0 40.562-32.882 73.444-73.444 73.444-13.765 0-26.644-3.788-37.655-10.376 12.826 21.436 36.271 35.789 63.068 35.789 40.562 0 73.444-32.882 73.444-73.444 0-26.797-14.353-50.241-35.789-63.068z" style="fill:#ffc847"/>
    <path d="m150.7 466.141 21.092 42.737 47.164 6.854-34.128 33.266 8.057 46.973-42.185-22.177-42.185 22.177 8.057-46.973-34.128-33.266 47.164-6.854z" style="fill:#b84ba9"/>
    <path d="M426.564 474.838c-9.976-5.176-23.731-5.687-33.365.616-4.931 3.226-17.849 17.209-17.849 21.12 0-3.911-12.918-17.893-17.849-21.12-9.634-6.303-23.389-5.792-33.365-.616-15.228 7.903-20.648 39.035-14.648 53.559 6.312 15.278 22.412 23.639 35.155 32.629 17.13 12.085 30.707 30.245 30.707 30.245s13.577-18.16 30.706-30.245c12.743-8.991 28.844-17.351 35.155-32.629 6.001-14.524.581-45.656-14.647-53.559z" style="fill:#d1496b"/>
    <path d="M659.724 471.332 597.8 487.924l12.72 12.721-70.244 70.244 19.891 19.891 70.244-70.244 12.72 12.72z" style="fill:#ffc847"/>
    <path d="m824.65 458.371-61.671 72.685 61.671 72.686 61.671-72.686z" style="fill:#9fcfc3"/>
    <path d="M1049.3 496.928c-37.697 0-68.256 30.559-68.256 68.256h136.512c0-37.697-30.559-68.256-68.256-68.256z" style="fill:#61acc1"/> -->
  </g>
</svg>